<svg id="eyes" xmlns="http://www.w3.org/2000/svg" viewBox="0 0 56.65 19.93"><defs><style>.cls-1,.cls-2,.cls-3,.cls-4{fill:none;stroke-miterlimit:10;}.cls-1{stroke:#4a393b;}.cls-2{stroke:#d8baa1;stroke-width:0.4px;}.cls-3{stroke:#887067;}.cls-4{stroke:#f9f7f1;}.cls-5{fill:#e3d7ba;}</style></defs><title>eyes</title><line class="cls-1" x1="47.06" y1="13.47" x2="56.58" y2="12.26"/><path class="cls-1" d="M563.5,287.25l-17.75,2.5" transform="translate(-537.99 -270.32)"/><path class="cls-2" d="M542.13,289.13a16.06,16.06,0,0,1,8.63-7.62,9.85,9.85,0,0,1,6.38-.37,9.37,9.37,0,0,1,4.88,3.75" transform="translate(-537.99 -270.32)"/><path class="cls-3" d="M554,268.75" transform="translate(-537.99 -270.32)"/><path class="cls-4" d="M574,234.33" transform="translate(-537.99 -270.32)"/><path class="cls-5" d="M538,278.44a0.33,0.33,0,0,0,0,.23A0.24,0.24,0,0,0,538,278.44Z" transform="translate(-537.99 -270.32)"/><polygon class="cls-5" points="0.9 7.6 0.89 7.68 0.99 7.46 0.9 7.6"/><path class="cls-5" d="M539.66,277.79c-0.14-.32-0.26.11-0.43,0l0-.08,0,0.29A0.89,0.89,0,0,1,539.66,277.79Z" transform="translate(-537.99 -270.32)"/><path class="cls-5" d="M540.27,278.42c-0.06-.13.06-0.14-0.11,0l0,0h0.09Z" transform="translate(-537.99 -270.32)"/><path class="cls-5" d="M540.19,278.44c-0.08,0,.09.1,0,0h0Z" transform="translate(-537.99 -270.32)"/><path class="cls-5" d="M540.56,278.25l-0.07.16c0,0.07.15,0.05,0.13,0.12C540.71,278.42,540.66,278.36,540.56,278.25Z" transform="translate(-537.99 -270.32)"/><path class="cls-5" d="M540.58,278l0,0.07S540.58,278.07,540.58,278Z" transform="translate(-537.99 -270.32)"/><path class="cls-5" d="M540.46,278.18l0.08-.15s-0.07-.16,0,0.06C540.48,278,540.49,278.09,540.46,278.18Z" transform="translate(-537.99 -270.32)"/><path class="cls-5" d="M540.37,278.15c-0.09-.06-0.18-0.08-0.1-0.23C540.08,278,540.17,278.26,540.37,278.15Z" transform="translate(-537.99 -270.32)"/><path class="cls-5" d="M539.62,277.42l-0.1-.08,0,0.13C539.5,277.4,539.65,277.52,539.62,277.42Z" transform="translate(-537.99 -270.32)"/><path class="cls-5" d="M541.3,278.18a2.63,2.63,0,0,0-.15-0.26l0,0.11A0.35,0.35,0,0,1,541.3,278.18Z" transform="translate(-537.99 -270.32)"/><path class="cls-5" d="M541.15,277.92l0.06-.17C541.11,277.78,541.11,277.84,541.15,277.92Z" transform="translate(-537.99 -270.32)"/><polygon class="cls-5" points="2.49 7.26 2.39 7.59 2.52 7.25 2.49 7.26"/><polygon class="cls-5" points="3.76 7.68 3.76 7.87 3.77 7.58 3.76 7.68"/><path class="cls-5" d="M542,277.84c0,0.15.17,0.19,0.16,0.3a0.56,0.56,0,0,0,.08-0.34C542.23,277.89,542.15,277.91,542,277.84Z" transform="translate(-537.99 -270.32)"/><path class="cls-5" d="M542.29,277.61a1,1,0,0,0,0,.2A0.47,0.47,0,0,0,542.29,277.61Z" transform="translate(-537.99 -270.32)"/><path class="cls-5" d="M541.42,277.71a0.36,0.36,0,0,0,.17.16l-0.13-.18Z" transform="translate(-537.99 -270.32)"/><path class="cls-5" d="M541.46,277.68h0l0.1,0Z" transform="translate(-537.99 -270.32)"/><path class="cls-5" d="M541.4,277.71h0S541.4,277.68,541.4,277.71Z" transform="translate(-537.99 -270.32)"/><path class="cls-5" d="M540.83,277.66a0.33,0.33,0,0,0-.08-0.43A1.24,1.24,0,0,1,540.83,277.66Z" transform="translate(-537.99 -270.32)"/><path class="cls-5" d="M541.25,277.49h-0.13a0.36,0.36,0,0,1,.07.19Z" transform="translate(-537.99 -270.32)"/><polygon class="cls-5" points="3.29 7.08 3.26 7.17 3.31 7.17 3.29 7.08"/><path class="cls-5" d="M542,277.53a0.23,0.23,0,0,1,.11-0.19,0.42,0.42,0,0,0-.22,0C541.91,277.45,541.94,277.57,542,277.53Z" transform="translate(-537.99 -270.32)"/><path class="cls-5" d="M541.73,277.59v0S541.72,277.56,541.73,277.59Z" transform="translate(-537.99 -270.32)"/><polygon class="cls-5" points="4.71 6.72 4.68 6.69 4.7 6.73 4.71 6.72"/><path class="cls-5" d="M541.86,277.35c-0.07,0-.07,0-0.07.12a0.33,0.33,0,0,1,.1-0.09S541.87,277.33,541.86,277.35Z" transform="translate(-537.99 -270.32)"/><path class="cls-5" d="M542.41,277.44l-0.14-.06C542.32,277.42,542.42,277.49,542.41,277.44Z" transform="translate(-537.99 -270.32)"/><path class="cls-5" d="M541.78,277.62h0S541.8,277.65,541.78,277.62Z" transform="translate(-537.99 -270.32)"/><path class="cls-5" d="M541.78,277.62a0.54,0.54,0,0,0,0-.15,0.29,0.29,0,0,0-.05.1Z" transform="translate(-537.99 -270.32)"/><path class="cls-5" d="M542.19,275.75c0.09,0.18.06,0.4-.14,0.27a2.21,2.21,0,0,0,.61,1,0.35,0.35,0,0,1,0-.31,0.47,0.47,0,0,1-.35-0.3c0.09-.16.14,0,0.26,0.05-0.18-.18,0-0.41-0.21-0.71l-0.05.18A0.39,0.39,0,0,0,542.19,275.75Z" transform="translate(-537.99 -270.32)"/><path class="cls-5" d="M542.45,277.11l0,0a0.67,0.67,0,0,1,.28.15,0.38,0.38,0,0,0,0-.26l-0.23.09v0Z" transform="translate(-537.99 -270.32)"/><path class="cls-5" d="M542.22,277.25a0.88,0.88,0,0,0-.17-0.52,0.42,0.42,0,0,0,0,.33c0.19-.15,0,0.14.2,0.17a0.3,0.3,0,0,1-.09.11l0.16,0h0s0,0,0,0h0l0-.08c0.08,0,0,0,0,.08v0h0l0.16-.21A0.32,0.32,0,0,0,542.22,277.25Z" transform="translate(-537.99 -270.32)"/><path class="cls-5" d="M540.7,276.76l0,0S540.73,276.76,540.7,276.76Z" transform="translate(-537.99 -270.32)"/><path class="cls-5" d="M540.84,276.85s0,0.12,0,.12a0.24,0.24,0,0,1-.07-0.16,0.19,0.19,0,0,0,.08.25v0a0.78,0.78,0,0,1,.32.27A3,3,0,0,0,540.84,276.85Z" transform="translate(-537.99 -270.32)"/><path class="cls-5" d="M541.5,277l0.13-.18-0.17-.12,0.05,0.1C541.4,276.82,541.48,276.93,541.5,277Z" transform="translate(-537.99 -270.32)"/><polygon class="cls-5" points="4.78 6.8 4.87 7.02 4.81 6.68 4.78 6.8"/><polygon class="cls-5" points="4.99 6.66 5.08 6.83 5.08 6.7 4.99 6.66"/><path class="cls-5" d="M555.13,271l0.06-.06Z" transform="translate(-537.99 -270.32)"/><path class="cls-5" d="M554.73,271v0.1A0.1,0.1,0,0,0,554.73,271Z" transform="translate(-537.99 -270.32)"/><path class="cls-5" d="M548,274.11c0.13,0.14.3,0.39,0.22,0.18l-0.1-.2C548.05,274.15,548,274.14,548,274.11Z" transform="translate(-537.99 -270.32)"/><path class="cls-5" d="M551.48,272.19l0-.07,0,0.21Z" transform="translate(-537.99 -270.32)"/><path class="cls-5" d="M551.51,271.29l0.11,0.14A0.47,0.47,0,0,0,551.51,271.29Z" transform="translate(-537.99 -270.32)"/><path class="cls-5" d="M557.36,270.88l0.08-.22C557.33,270.66,557.37,270.78,557.36,270.88Z" transform="translate(-537.99 -270.32)"/><path class="cls-5" d="M545.09,275.59a0.32,0.32,0,0,0,.21,0C545.17,275.55,545,275.42,545.09,275.59Z" transform="translate(-537.99 -270.32)"/><path class="cls-5" d="M554.95,273.34a0.19,0.19,0,0,0,0-.13A0.16,0.16,0,0,0,554.95,273.34Z" transform="translate(-537.99 -270.32)"/><path class="cls-5" d="M545.47,275.51l-0.06,0a0.19,0.19,0,0,1-.11.13C545.4,275.66,545.49,275.67,545.47,275.51Z" transform="translate(-537.99 -270.32)"/><path class="cls-5" d="M565.35,272.82v0S565.36,272.82,565.35,272.82Z" transform="translate(-537.99 -270.32)"/><path class="cls-5" d="M566.51,275.77l-0.09,0S566.45,275.78,566.51,275.77Z" transform="translate(-537.99 -270.32)"/><path class="cls-5" d="M543.9,276.54s0,0,0,0h0Z" transform="translate(-537.99 -270.32)"/><path class="cls-5" d="M543.24,275.94a0.26,0.26,0,0,0,0-.1A0.33,0.33,0,0,1,543.24,275.94Z" transform="translate(-537.99 -270.32)"/><path class="cls-5" d="M545.2,274.09h0S545.17,274.07,545.2,274.09Z" transform="translate(-537.99 -270.32)"/><path class="cls-5" d="M543.78,276.5l0.09,0Z" transform="translate(-537.99 -270.32)"/><path class="cls-5" d="M543.84,276.58h-0.05S543.82,276.63,543.84,276.58Z" transform="translate(-537.99 -270.32)"/><path class="cls-5" d="M544,276.49a0.14,0.14,0,0,1-.08,0l0,0Z" transform="translate(-537.99 -270.32)"/><path class="cls-5" d="M561,272.11v0C561.09,272.06,561.06,272.07,561,272.11Z" transform="translate(-537.99 -270.32)"/><polygon class="cls-5" points="10.56 1.25 10.56 1.26 10.57 1.27 10.56 1.25"/><path class="cls-5" d="M548.71,271.37c0,0.28-.08.26-0.16,0.22l0.2,0.6Z" transform="translate(-537.99 -270.32)"/><path class="cls-5" d="M556.1,271l-0.13-.2c0.17-.32.28-0.2,0.17-0.48,0,0.68-.52.06-0.55,0.73l-0.08-.14s0,0,.05,0c-0.16-.33-0.13.49-0.35,0.39a0.18,0.18,0,0,1-.07-0.23l-0.17.17s0-.13,0-0.12l-0.26.05v0a2.58,2.58,0,0,1-.16.34c-0.06-.1,0-0.07,0-0.16l-0.14.16c-0.06-.18.06-0.35,0.16-0.32-0.13-.68-0.12.17-0.4-0.23l0.13-.09a0.87,0.87,0,0,0-.34-0.49,1.1,1.1,0,0,1,.15.77c0-.05-0.1-0.08-0.18.06,0-.24-0.08-0.18-0.18-0.17V270.7a1,1,0,0,0-.16.4,0.62,0.62,0,0,1-.18-0.49c-0.19-.05.13,0.4-0.09,0.46-0.16-.12-0.27,0-0.47.2a0.4,0.4,0,0,1,0-.29l-0.1.26a0.16,0.16,0,0,1,0-.12,1.25,1.25,0,0,1-.14.41c0,0.35-.28-0.51-0.44-0.11a1.23,1.23,0,0,1,0-.32,1.68,1.68,0,0,0-.38.55l-0.17-.21a0.87,0.87,0,0,1-.14.76c0,0.11.08,0.22,0.11,0.26l-0.2.18a0.57,0.57,0,0,1,0-.3l0,0.08a0.64,0.64,0,0,1,0-.48l0.08,0.19a2.06,2.06,0,0,0,.07-0.6,0.18,0.18,0,0,1-.07.09,0.34,0.34,0,0,0,0-.13s0,0-.06.12l-0.06-.35v0.14l-0.29-.21a2.73,2.73,0,0,1-.62,1.08,2.45,2.45,0,0,0,0-.74c0.11,0.32.24-.16,0.41-0.1a0.19,0.19,0,0,1-.06-0.23l-0.28.32c0-.25-0.08-0.18-0.17-0.28,0.1,0.49-.19.35-0.29,0.52,0-.17,0-0.34.14-0.32-0.21-.36-0.15.61-0.34,0.31,0,0,.06,0,0.06-0.07a0.14,0.14,0,0,1-.26-0.08h0a0.57,0.57,0,0,0-.68.54c0-.05-0.07-0.51-0.07-0.6l-0.06.74,0,0.74a3.91,3.91,0,0,1-.25-1.42,0.16,0.16,0,0,0-.25.08,1.15,1.15,0,0,1,.18.53,1.87,1.87,0,0,0-.43-0.47,0.86,0.86,0,0,1,.08.63,5.88,5.88,0,0,1-.15-0.61l-0.06.61a1.25,1.25,0,0,0-.24-0.59c0.06,0.1-.2.06-0.24,0.13l0.14,0.09c-0.29,0,0,.82-0.21.89a1.27,1.27,0,0,0-.34-0.71,7.13,7.13,0,0,1,.21,1.66l-0.1-.13-0.06.24a8.22,8.22,0,0,1-.19-1.78c-0.14-.08-0.1-0.17-0.24-0.09a0.18,0.18,0,0,1,0-.27l-0.37.05c0.15,0.3-.1.42,0,0.67l0.09-.24,0.1-.24a0.93,0.93,0,0,1,0,1,2.94,2.94,0,0,1-.28-0.66c0,0.12-.11.3-0.16,0.24v-0.21c-0.18-.05,0,0.49-0.29.28-0.06,0-.35-0.3-0.26-0.12a8,8,0,0,1,.92,1.61,3.11,3.11,0,0,1-.56-0.33c-0.22-.22-0.23-0.69-0.43-0.88a0.65,0.65,0,0,1,.05.25c-0.09,0-.12-0.26-0.21-0.16,0.15,0.31-.23.1,0.09,0.28-0.06.14-.14,0-0.26,0.09a1.43,1.43,0,0,1,.22.85,0.88,0.88,0,0,0-.16-0.2,4.76,4.76,0,0,0-.61.15,0.49,0.49,0,0,1-.24-0.24,0.29,0.29,0,0,1,0,.23,2.21,2.21,0,0,1-.17-0.37,0.7,0.7,0,0,1,0,.48c0.19,0.24.22-.07,0.24-0.23a1.49,1.49,0,0,1,.22,1.11c-0.1.19-.21-0.19-0.21-0.12-0.34.12,0.14,0.78-.27,0.68a2,2,0,0,1-.41-0.6c0.07-.17.29,0,0.37,0l-0.17,0c0-.1,0-0.21.13-0.18-0.21-.15-0.53.27-0.87,0.23a0.37,0.37,0,0,0,.08.3l0.05-.08a3.66,3.66,0,0,0,.17.37c0,0.19,0,.46-0.21.44l-0.18-.25c0,0.08.19,0.1,0.18,0,0,0.15-.43-0.23-0.29.16l0.21,0.12c0,0.19,0,.55-0.16.54a2.57,2.57,0,0,0,.28.21c-0.3-.33.34-0.18,0-0.5a2,2,0,0,0,.55.28c-0.06-.08-0.14-0.14,0-0.16a0.59,0.59,0,0,1,0-.09h0s0,0,0,0a0.4,0.4,0,0,1-.13-0.1,1,1,0,0,1,.09-0.46,0.46,0.46,0,0,1,.13.19v-0.2c0.13,0.19.36,0.22,0.28,0.42l0.14-.07c0.14,0.06.28,0,.29-0.09s0-.31.06-0.12l0.13-.24,0,0c0.21-.1.21-0.57,0.64-0.36a0.24,0.24,0,0,1,.21-0.2l0.12,0.15c0-.11.35,0,0.28-0.17,0.35,0.4.46-.14,0.64-0.13l-0.12-.22a0.57,0.57,0,0,0,.24-0.32l-0.11-.19c0-.22.35,0,0.51-0.1,0,0.08,0,.08-0.08.05,0.42,0.35.28-.54,0.62-0.28,0-.1.06-0.08,0.11,0v0h0l0.11,0.08-0.1-.09a0.34,0.34,0,0,0,.11-0.14l0.11,0.22h0c0.08,0.07,0-.12-0.09-0.28a0.57,0.57,0,0,0,0-.16c0.17,0.35.1-.17,0.29,0.2a1.44,1.44,0,0,0,.13-0.65c0,0.05,0,.07,0,0.09s0.15,0.06.18-.07l0.1,0.29,0-.43a0.56,0.56,0,0,1,.16.51c0.12-.4.13-0.17,0.23-0.56l0,0.2c0.06,0,.11-0.3.18-0.15,0.2,0.34.72-.06,1.13,0.26-0.12-.57.19,0.25,0.17-0.21a0.47,0.47,0,0,1,0,.33c0.18-.15.29,0.2,0.41-0.19,0,0.14,0,.2,0,0.28s0.05-.12.08,0a0.22,0.22,0,0,1,0,.18,1,1,0,0,0,.19-0.86c0.11,0.19.16,0.16,0.22-.11,0,0.13.1,0.26,0,.31,0.07,0,.43.18,0.44-0.14,0,0.08.1,0,.12,0a0.76,0.76,0,0,0,.33,0l0-.05c0.06-.39.13-0.09,0.26-0.13v0a1.83,1.83,0,0,1,.42.18l0-.24c0-.52.26,0.3,0.43,0.11l-0.06-.14a2.29,2.29,0,0,1,.35.77,0.11,0.11,0,0,1-.06.11c0.24,0.3,0-.31.21-0.39a0.67,0.67,0,0,0,.08.46c0.06,0.14.35-.55,0.51-0.22a0.38,0.38,0,0,1,0-.36c0.13,0,.34.5,0.46,0.09a0.26,0.26,0,0,1,0,.1,1,1,0,0,0,.38-0.39c0.07,0.83.61-.39,0.59,0.37l0.3,0v0.08c0.19,0.06.26-.12,0.33-0.3a0.2,0.2,0,0,1,0,.16c0.27,0.17.3,0.13,0.55-.23v0.25c0.07-.14.37,0.41,0.66,0.14a0.28,0.28,0,0,1,0,.11c0.33-.27.64,0.75,0.85-0.14l0.22-.2c-0.25-.1.08-0.38,0-0.55,0.11,0,.23.3,0.1,0.33v0c-0.1.46,0.3,0.2,0.25,0.52a8.78,8.78,0,0,1,1.39.49l0-.37,0.16,0.05c0,0.09,0,.29-0.11.25,0,0.22.23-.13,0.25-0.21,0.19,0.19-.18.4-0.11,0.42h0.1v0c0.11-.13.15-0.28,0.28-0.23a0.62,0.62,0,0,1,0,.25s0,0,0,0L561.4,274v-0.3c0.12-.12.19,0.06,0.17-0.28,0,0.52.71,0.37,0.75,0.55a0.33,0.33,0,0,1,.45-0.06c0-.07.05-0.39,0.17-0.31-0.25.62,0.15,0.35,0.11,0.85,0-.33.39,0,0.39-0.43a1.12,1.12,0,0,1,0,.42c0.34-.16.5,0.36,0.84,0.39a0.66,0.66,0,0,1,.15-0.32V275c0.08,0,.25-0.45.24-0.12a0.25,0.25,0,0,1,.08-0.2c0.43,0.64,1.39.22,1.61,1.25,0-.19.06-0.18,0.12-0.15a1,1,0,0,1,.15-0.3l0.09,0.42c0.2-.27.27,0.12,0.45-0.14H567a6.07,6.07,0,0,0,.5-1.22c-0.32.31,0-.73-0.52-0.3a1,1,0,0,1,.14-0.23c-0.15.16-.23,0.16-0.3,0l0,0a2.19,2.19,0,0,1-.73-0.66l-0.07.23a0.33,0.33,0,0,1-.07-0.21c-0.24.29,0.22,0.12,0,.44,0.09-.49-0.57-0.26-0.43-0.79-0.13-.05-0.07.27-0.19,0.21l0-.15-0.1.16a0.41,0.41,0,0,1,0-.37,0.15,0.15,0,0,0,.1,0c0-.21-0.33-0.07-0.35-0.14l0.09,0.13a2.77,2.77,0,0,0-1.21-.18v0.11c-0.33.11-.17-0.18-0.49-0.19l0,0a0.24,0.24,0,0,1-.26.08,2.17,2.17,0,0,1,.07-0.39,0.83,0.83,0,0,0-.5.47v-0.19a0.37,0.37,0,0,1-.29.23c0.16-.12,0-0.3.17-0.46-0.2-.48-0.56.28-0.55-0.33-0.26.46,0.2,0.34,0.09,0.43s-0.21.34-.29,0.27a1.37,1.37,0,0,0-.26-0.73s0,0,.06,0c-0.06-.15-0.22.13-0.29-0.1-0.13.29-.15,0-0.25,0.33l0.25,0c-0.15.07-.37,0.5-0.53,0.24a0.73,0.73,0,0,1,.17-0.21c0-.13-0.13.05-0.18-0.08,0.1-.38.29,0,0.5-0.3,0-.18-0.32.23-0.17-0.18-0.21.51-.24-0.12-0.49,0.26l0.06-.23a0.29,0.29,0,0,1-.16.12l0.15-.29c-0.19.23-.23-0.27-0.39-0.16,0.28,0,0,.29.1,0.48-0.39.25-.09-0.65-0.5-0.6,0.06,0,.18.17,0.08,0.27a0.58,0.58,0,0,1-.18-0.29c-0.27,0,0,.25-0.13.38,0-.3-0.14.1-0.27,0.18l0-.24c-0.27-.19-0.14.49-0.38,0.27l0.15-.32-0.15.07,0.06-.27c-0.17.18-.21,0.13-0.35,0a0.39,0.39,0,0,1-.19.43c-0.07-.15.07-0.22-0.11-0.21,0.06-.15.12-0.33,0.18-0.1,0-.08.06-0.15,0.07-0.22s-0.24-.06-0.3-0.07a0.11,0.11,0,0,1,.07.06l-0.3.31a0.26,0.26,0,0,1,0-.23,0.87,0.87,0,0,1-.18.14,0.75,0.75,0,0,1,.17-0.48L558,271a0.8,0.8,0,0,1-.07-0.31c-0.13-.13-0.37.35-0.55,0.19a0.17,0.17,0,0,1-.07.1c-0.17-.06-0.32-0.3-0.53,0l-0.1-.36c-0.16.07,0.14,0.45-.13,0.57s-0.06-.3-0.12-0.4c-0.1.17-.27,0.53-0.44,0.24A0.24,0.24,0,0,1,556.1,271Zm-2,.13c0-.05.11-0.21,0.14-0.06S554.2,271.21,554.13,271.13Zm-3,.61c0-.08.07,0,0.12,0S551.22,271.8,551.18,271.74Zm-6.89,4.33h0C544.4,276.09,544.36,276.08,544.28,276.07Zm-0.21,0a0.14,0.14,0,0,0,0,.09,0.06,0.06,0,0,1,.06-0.09S544.1,276,544.08,276.07Zm17.11-2.26,0-.07C561.26,273.69,561.23,273.75,561.19,273.81Z" transform="translate(-537.99 -270.32)"/><path class="cls-5" d="M551.51,271.4a0.66,0.66,0,0,1,0,.13A0.13,0.13,0,0,0,551.51,271.4Z" transform="translate(-537.99 -270.32)"/><polygon class="cls-5" points="19.36 0.6 19.36 0.61 19.37 0.56 19.36 0.6"/><path class="cls-5" d="M545.33,272.92a0.27,0.27,0,0,1,.12.07A0.11,0.11,0,0,0,545.33,272.92Z" transform="translate(-537.99 -270.32)"/><path class="cls-5" d="M543.48,276.92l0.07-.11a0.11,0.11,0,0,1-.13,0S543.51,276.9,543.48,276.92Z" transform="translate(-537.99 -270.32)"/><path class="cls-5" d="M541.89,276.1s0,0,0,.05l0.06,0.1A0.08,0.08,0,0,0,541.89,276.1Z" transform="translate(-537.99 -270.32)"/><path class="cls-5" d="M543,276.28c-0.11-.17-0.13-0.07-0.19,0h0C542.93,276.53,543,276.41,543,276.28Z" transform="translate(-537.99 -270.32)"/><path class="cls-5" d="M542.79,276.29a0.1,0.1,0,0,1-.06,0C542.77,276.44,542.76,276.34,542.79,276.29Z" transform="translate(-537.99 -270.32)"/><path class="cls-5" d="M544,276.31a1.32,1.32,0,0,0,.05.17C544.11,276.72,544.06,276.08,544,276.31Z" transform="translate(-537.99 -270.32)"/><polygon class="cls-5" points="4.61 5.42 4.76 5.62 4.69 5.42 4.61 5.42"/><path class="cls-5" d="M543.22,275.58h-0.14a0.1,0.1,0,0,1,0,.09C543.16,275.64,543.26,275.64,543.22,275.58Z" transform="translate(-537.99 -270.32)"/><path class="cls-5" d="M543.09,275.67a0.09,0.09,0,0,0-.07.09A0.18,0.18,0,0,0,543.09,275.67Z" transform="translate(-537.99 -270.32)"/><polygon class="cls-5" points="4.71 5.26 4.77 5.29 4.86 5.26 4.71 5.26"/><path class="cls-5" d="M544.38,274.91l0.08-.13c0-.08-0.09-0.1-0.12,0A0.21,0.21,0,0,0,544.38,274.91Z" transform="translate(-537.99 -270.32)"/><path class="cls-5" d="M543.66,274.55a0.54,0.54,0,0,1,.15.13l-0.16-.27v0.14Z" transform="translate(-537.99 -270.32)"/><path class="cls-5" d="M544,274.28c0-.08,0-0.31-0.1-0.21C543.89,274.15,543.82,274.28,544,274.28Z" transform="translate(-537.99 -270.32)"/><polygon class="cls-5" points="7.94 3.24 7.92 3.26 8.16 3.7 7.94 3.24"/><path class="cls-5" d="M547.14,271.64c-0.22-.05.07,0.31-0.13,0.23,0,0.13.17,0.06,0.16,0.18C547.23,271.89,547.31,271.94,547.14,271.64Z" transform="translate(-537.99 -270.32)"/><path class="cls-5" d="M547.17,272a0.52,0.52,0,0,0,0,.09A0.26,0.26,0,0,0,547.17,272Z" transform="translate(-537.99 -270.32)"/><polygon class="cls-5" points="28.71 5.87 28.74 6.01 28.77 5.83 28.71 5.87"/><path class="cls-5" d="M567,275.95l-0.14.29,0.2-.23S567,276,567,275.95Z" transform="translate(-537.99 -270.32)"/><path class="cls-5" d="M553.85,270.47v0.08a0.1,0.1,0,0,0,.09.1Z" transform="translate(-537.99 -270.32)"/><polygon class="cls-5" points="17.28 0.41 17.26 0.4 17.3 0.69 17.28 0.41"/><path class="cls-5" d="M556.49,270.38s-0.11,0-.16,0C556.44,270.37,556.49,270.75,556.49,270.38Z" transform="translate(-537.99 -270.32)"/><path class="cls-5" d="M591.26,277.59a0.68,0.68,0,0,0,.23,0A0.49,0.49,0,0,0,591.26,277.59Z" transform="translate(-537.99 -270.32)"/><polygon class="cls-5" points="52.74 6.97 52.82 6.96 52.61 6.95 52.74 6.97"/><path class="cls-5" d="M590.64,276.95c-0.34.13,0.09,0.11,0,.2l-0.08,0,0.29,0C590.77,277.07,590.56,277,590.64,276.95Z" transform="translate(-537.99 -270.32)"/><path class="cls-5" d="M591.32,276.53c-0.13.05-.13,0,0,0.06l0,0A0.06,0.06,0,0,1,591.32,276.53Z" transform="translate(-537.99 -270.32)"/><path class="cls-5" d="M591.33,276.58s0.1-.06,0,0h0Z" transform="translate(-537.99 -270.32)"/><path class="cls-5" d="M591.19,276.42h0.13a0.4,0.4,0,0,1,.14-0.09A0.3,0.3,0,0,0,591.19,276.42Z" transform="translate(-537.99 -270.32)"/><path class="cls-5" d="M590.93,276.46H591S591,276.44,590.93,276.46Z" transform="translate(-537.99 -270.32)"/><path class="cls-5" d="M591.11,276.48l-0.12,0c-0.05,0-.16.06,0,0C590.93,276.51,591,276.48,591.11,276.48Z" transform="translate(-537.99 -270.32)"/><path class="cls-5" d="M591.07,276.53a0.26,0.26,0,0,1-.23.09C590.91,276.7,591.15,276.61,591.07,276.53Z" transform="translate(-537.99 -270.32)"/><path class="cls-5" d="M590.28,277l-0.09.06h0.12C590.25,277.09,590.39,277,590.28,277Z" transform="translate(-537.99 -270.32)"/><path class="cls-5" d="M591.24,276l-0.27.13h0.1A0.48,0.48,0,0,1,591.24,276Z" transform="translate(-537.99 -270.32)"/><path class="cls-5" d="M591,276.17h-0.14C590.84,276.21,590.9,276.2,591,276.17Z" transform="translate(-537.99 -270.32)"/><polygon class="cls-5" points="52.57 6.26 52.85 6.26 52.56 6.25 52.57 6.26"/><polygon class="cls-5" points="53.18 5.5 53.35 5.46 53.09 5.51 53.18 5.5"/><path class="cls-5" d="M591.07,275.69c0.14,0,.21-0.14.3-0.15a0.59,0.59,0,0,0-.29,0C591.16,275.55,591.16,275.59,591.07,275.69Z" transform="translate(-537.99 -270.32)"/><path class="cls-5" d="M590.91,275.57l0.17,0Z" transform="translate(-537.99 -270.32)"/><path class="cls-5" d="M590.83,276.06a0.6,0.6,0,0,0,.18-0.13l-0.19.11v0Z" transform="translate(-537.99 -270.32)"/><path class="cls-5" d="M590.82,276h0v0Z" transform="translate(-537.99 -270.32)"/><path class="cls-5" d="M590.83,276.06h0S590.8,276.07,590.83,276.06Z" transform="translate(-537.99 -270.32)"/><path class="cls-5" d="M590.69,276.38a0.63,0.63,0,0,0-.41.12A2.6,2.6,0,0,1,590.69,276.38Z" transform="translate(-537.99 -270.32)"/><path class="cls-5" d="M590.59,276.19l0,0.07a0.75,0.75,0,0,1,.18-0.07h-0.16Z" transform="translate(-537.99 -270.32)"/><polygon class="cls-5" points="52.54 5.87 52.61 5.87 52.62 5.84 52.54 5.87"/><path class="cls-5" d="M590.78,275.76a0.14,0.14,0,0,1-.14,0,0.14,0.14,0,0,0,0,.12A0.21,0.21,0,0,0,590.78,275.76Z" transform="translate(-537.99 -270.32)"/><path class="cls-5" d="M590.79,275.9h0S590.75,275.92,590.79,275.9Z" transform="translate(-537.99 -270.32)"/><polygon class="cls-5" points="52.51 5.13 52.47 5.15 52.51 5.13 52.51 5.13"/><path class="cls-5" d="M590.59,275.87s0,0,.09,0a0.1,0.1,0,0,1-.06,0S590.58,275.87,590.59,275.87Z" transform="translate(-537.99 -270.32)"/><path class="cls-5" d="M590.78,275.54l-0.08.1C590.75,275.59,590.83,275.51,590.78,275.54Z" transform="translate(-537.99 -270.32)"/><path class="cls-5" d="M590.82,275.87h0S590.85,275.85,590.82,275.87Z" transform="translate(-537.99 -270.32)"/><path class="cls-5" d="M590.82,275.87l-0.13,0h0.08Z" transform="translate(-537.99 -270.32)"/><path class="cls-5" d="M589.26,276.05c0.17-.1.36-0.14,0.2,0a4.65,4.65,0,0,0,1-.59,0.6,0.6,0,0,1-.28.09,0.8,0.8,0,0,1-.34.28c-0.12,0,0-.08.11-0.17-0.2.15-.36,0.1-0.66,0.3l0.14,0A0.91,0.91,0,0,0,589.26,276.05Z" transform="translate(-537.99 -270.32)"/><path class="cls-5" d="M590.5,275.58h0a1,1,0,0,1,.2-0.2,0.61,0.61,0,0,0-.23.07l0,0.12h0Z" transform="translate(-537.99 -270.32)"/><path class="cls-5" d="M590.58,275.69a1.74,1.74,0,0,0-.5.21,0.57,0.57,0,0,0,.28,0c-0.1-.08.12,0,0.19-0.15a0.13,0.13,0,0,1,.08,0l0.06-.1h0l-0.07,0c0-.05,0,0,0.07,0h0l-0.16-.05S590.53,275.65,590.58,275.69Z" transform="translate(-537.99 -270.32)"/><path class="cls-5" d="M589.82,276.62l0,0S589.82,276.61,589.82,276.62Z" transform="translate(-537.99 -270.32)"/><path class="cls-5" d="M589.93,276.54s0.11,0,.1,0a0.52,0.52,0,0,1-.16.07,0.38,0.38,0,0,0,.24-0.09h0a1.39,1.39,0,0,1,.31-0.22Z" transform="translate(-537.99 -270.32)"/><path class="cls-5" d="M590.22,276.15l-0.14,0-0.15.12,0.1,0C590,276.24,590.14,276.18,590.22,276.15Z" transform="translate(-537.99 -270.32)"/><polygon class="cls-5" points="52.59 5.07 52.8 4.96 52.49 5.07 52.59 5.07"/><polygon class="cls-5" points="52.5 4.97 52.68 4.87 52.56 4.9 52.5 4.97"/><path class="cls-5" d="M584.54,274.51l0,0.06A0.22,0.22,0,0,0,584.54,274.51Z" transform="translate(-537.99 -270.32)"/><path class="cls-5" d="M584.68,274.52v-0.1A0.26,0.26,0,0,0,584.68,274.52Z" transform="translate(-537.99 -270.32)"/><path class="cls-5" d="M588.31,273.07c0.06-.18.17-0.45,0.06-0.26l-0.1.19S588.32,273,588.31,273.07Z" transform="translate(-537.99 -270.32)"/><path class="cls-5" d="M586,273.51v0.07l0.07-.2Z" transform="translate(-537.99 -270.32)"/><path class="cls-5" d="M585.82,274.38v-0.14A0.78,0.78,0,0,0,585.82,274.38Z" transform="translate(-537.99 -270.32)"/><path class="cls-5" d="M583.8,274.82V275A0.35,0.35,0,0,0,583.8,274.82Z" transform="translate(-537.99 -270.32)"/><path class="cls-5" d="M589.66,274.29a0.23,0.23,0,0,0,0-.16C589.63,274.25,589.52,274.4,589.66,274.29Z" transform="translate(-537.99 -270.32)"/><path class="cls-5" d="M584.53,272.21a0.33,0.33,0,0,0,0,.13A0.27,0.27,0,0,0,584.53,272.21Z" transform="translate(-537.99 -270.32)"/><path class="cls-5" d="M589.62,274.05l0,0a0.08,0.08,0,0,1,.1,0C589.74,274,589.76,274,589.62,274.05Z" transform="translate(-537.99 -270.32)"/><path class="cls-5" d="M580.87,275.56l0,0S580.87,275.56,580.87,275.56Z" transform="translate(-537.99 -270.32)"/><path class="cls-5" d="M579.08,274a0.06,0.06,0,0,1,0,0S579.09,273.93,579.08,274Z" transform="translate(-537.99 -270.32)"/><path class="cls-5" d="M590.29,274.8s0,0,0,0h0Z" transform="translate(-537.99 -270.32)"/><path class="cls-5" d="M589.65,275.39l-0.09.05Z" transform="translate(-537.99 -270.32)"/><path class="cls-5" d="M588.49,274.83h0S588.47,274.85,588.49,274.83Z" transform="translate(-537.99 -270.32)"/><path class="cls-5" d="M590.23,274.89l0-.07Z" transform="translate(-537.99 -270.32)"/><path class="cls-5" d="M590.31,274.83v0S590.36,274.83,590.31,274.83Z" transform="translate(-537.99 -270.32)"/><path class="cls-5" d="M590.26,274.77a0.05,0.05,0,0,1,0,0l0,0Z" transform="translate(-537.99 -270.32)"/><path class="cls-5" d="M582.26,274.41v0C582.25,274.48,582.26,274.47,582.26,274.41Z" transform="translate(-537.99 -270.32)"/><polygon class="cls-5" points="48.72 4.43 48.73 4.42 48.73 4.41 48.72 4.43"/><path class="cls-5" d="M586.58,274.87c0.14-.23.14-0.2,0.13-0.14l0.25-.57Z" transform="translate(-537.99 -270.32)"/><path class="cls-5" d="M584.21,274.59l0.06,0.19a0.89,0.89,0,0,0,0,.49c-0.06-.68.16-0.09,0.12-0.76l0,0.14s0,0,0,0c0.08,0.32,0-.49.1-0.4a0.37,0.37,0,0,1,0,.23l0.05-.17a0.13,0.13,0,0,1,0,.12l0.09-.06v0c0-.11,0-0.27.06-0.34a0.45,0.45,0,0,1,0,.16l0.05-.16a0.34,0.34,0,0,1-.06.32c0,0.68,0-.17.14,0.23l0,0.08a1.84,1.84,0,0,0,.09.49,3.37,3.37,0,0,1,0-.78c0,0.05,0,.08.07-0.06,0,0.24,0,.18.06,0.17l0,0.32a2.87,2.87,0,0,0,.08-0.4,1.33,1.33,0,0,1,0,.49c0.06,0.06,0-.4.07-0.45,0,0.13.09,0,.18-0.18a1.1,1.1,0,0,1,0,.29l0.07-.25a0.44,0.44,0,0,1,0,.12,2.61,2.61,0,0,1,.1-0.4c0.07-.35,0,0.52.14,0.14,0,0.09,0,.19-0.06.31a4.06,4.06,0,0,0,.23-0.51l0,0.22a1.91,1.91,0,0,1,.22-0.73l0-.27,0.13-.15a1.27,1.27,0,0,1-.08.29l0-.07a1.47,1.47,0,0,1-.12.47v-0.2a4.51,4.51,0,0,0-.16.58,0.25,0.25,0,0,1,0-.08,0.89,0.89,0,0,0,0,.13,0.21,0.21,0,0,0,0-.11l-0.06.35,0-.14,0,0.24a2.91,2.91,0,0,1,.53-0.92,6,6,0,0,0-.23.7c0.07-.32-0.12.11-0.16,0a0.49,0.49,0,0,1,0,.23l0.18-.26a0.53,0.53,0,0,0,0,.29,0.47,0.47,0,0,1,.27-0.43c-0.05.16-.12,0.32-0.15,0.26-0.07.37,0.26-.53,0.21-0.21,0,0,0,0,0,.05,0.08-.13.11,0,0,0.14h0c0.06,0.08.22,0.09,0.41-.28l-0.26.54,0.37-.62,0.39-.61a12.2,12.2,0,0,1-.67,1.28c0,0.06,0,.12.08,0a3.44,3.44,0,0,1,.24-0.51c-0.14.39-.07,0.21-0.17,0.55a2.14,2.14,0,0,1,.33-0.54c0,0.07-.27.5-0.31,0.54l0.34-.45a3.78,3.78,0,0,0-.3.56c0-.1.05,0,0.1,0l0-.13c0,0.11.49-.63,0.56-0.55a3.55,3.55,0,0,0-.41.67,7.66,7.66,0,0,1,1.07-1.22l-0.08.15,0.17-.1c-0.3.31-.92,1-1.16,1.26,0,0.13-.1.17-0.05,0.18a0.36,0.36,0,0,1-.17.18l0,0.14c0.19-.28.26-0.23,0.42-0.45l-0.3.21a1.43,1.43,0,0,1,.65-0.63c-0.06.12-.37,0.47-0.44,0.56,0.08-.09.19-0.13,0.15-0.06l-0.14.12c0,0.12.33-.31,0.18,0,0,0-.23.37-0.11,0.22,0.22-.31,1-1.24,1.17-1.44a3.14,3.14,0,0,1-.24.52c-0.17.25-.51,0.51-0.66,0.72a1.48,1.48,0,0,1,.18-0.17,0.45,0.45,0,0,0-.13.21c0.23-.25,0,0.08.21-0.2,0.1,0,0,.08,0,0.11a2.64,2.64,0,0,1,.65-0.54,2.06,2.06,0,0,0-.16.19c0.05,0.1,0,.24,0,0.31a1.06,1.06,0,0,1-.22.25,0.41,0.41,0,0,1,.17-0.09c-0.18.24-.07,0-0.31,0.25a1,1,0,0,1,.37-0.18c0.22-.21,0-0.11-0.13-0.05a2.36,2.36,0,0,1,.91-0.57c0.14,0-.18.2-0.13,0.18,0,0.17.66-.35,0.51-0.05a4.22,4.22,0,0,1-.57.45c-0.12,0,.07-0.19,0-0.22l-0.06.12c-0.08,0-.16,0-0.12,0a1.5,1.5,0,0,0,0,.45,0.77,0.77,0,0,0,.26-0.14H589.2c0.16-.15.29-0.11,0.34-0.21s0.39-.13.33,0l-0.25.18c0.07,0,.12-0.14,0-0.11,0.13,0-.28.32,0.07,0.13l0.15-.16c0.16,0,.47-0.15.43,0,0.24-.19,0,0,0.24-0.23-0.35.27-.09-0.17-0.44,0.14a2.3,2.3,0,0,0,.34-0.43c-0.08.06-.15,0.13-0.14,0l-0.08,0h0s0,0,0,0l-0.11.11a1,1,0,0,1-.37.07,1,1,0,0,1,.18-0.13l-0.17.07a1,1,0,0,1,.4-0.31l0-.07c0.07-.11.07-0.2,0-0.17s-0.25.08-.1,0H589.8l0,0c-0.06-.11-0.44.06-0.24-0.32-0.07,0-.15,0-0.15-0.07l0.13-.15c-0.09,0,0-.25-0.14-0.13,0.32-.42-0.12-0.27-0.13-0.4l-0.17.19a0.27,0.27,0,0,0-.26,0l-0.14.18c-0.17.1,0-.23-0.14-0.28,0.06-.06.07,0,0,0,0.19-.49-0.43.14-0.32-0.22-0.07.05-.07,0-0.06,0h0l0-.12a0.74,0.74,0,0,0,0,.12,0.17,0.17,0,0,0-.12,0l0.11-.21h0c0-.09-0.08.08-0.16,0.25l-0.11.1c0.18-.35-0.14.07,0-0.3a1.42,1.42,0,0,0-.44.42s0-.08,0-0.07,0-.12-0.1,0l0.13-.28-0.25.33a1,1,0,0,1,.22-0.48,3.65,3.65,0,0,0-.38.37l0.09-.18s-0.19.21-.14,0.05c0.08-.38-0.32-0.19-0.4-0.58-0.14.57,0-.28-0.15,0.15a0.86,0.86,0,0,1,.09-0.32c-0.14.1-.1-0.25-0.26,0.09,0-.14.07-0.19,0.08-0.27s-0.06.11-.05,0a0.33,0.33,0,0,1,.08-0.16,1.37,1.37,0,0,0-.32.79c0-.19,0-0.17-0.13.08a0.4,0.4,0,0,1,.08-0.3s-0.18-.23-0.24.08c0-.08,0,0-0.06,0a0.18,0.18,0,0,0-.16,0v0.05c-0.09.38-.07,0.08-0.14,0.12v0a0.9,0.9,0,0,1-.17-0.2l0,0.24c-0.06.51-.09-0.32-0.19-0.13l0,0.14a4.78,4.78,0,0,1-.12-0.77,0.15,0.15,0,0,1,0-.1c-0.11-.31,0,0.31-0.13.38a1.18,1.18,0,0,0,0-.46c0-.14-0.19.54-0.27,0.22a0.73,0.73,0,0,1,0,.36c-0.06,0-.18-0.49-0.22-0.08a0.5,0.5,0,0,1,0-.1,0.89,0.89,0,0,0-.16.41c-0.1-.83-0.25.42-0.31-0.34l-0.14.06v-0.08c-0.1,0-.11.14-0.12,0.33a0.4,0.4,0,0,1,0-.16c-0.15-.14-0.16-0.1-0.22.29l0-.24c0,0.15-.26-0.35-0.34,0a0.49,0.49,0,0,1,0-.11c-0.08.31-.49-0.6-0.35,0.29l0,0.24a1.31,1.31,0,0,1,.15.52c0,0.06-.18-0.24-0.13-0.3l0,0a1.28,1.28,0,0,0-.26-0.44,6.23,6.23,0,0,1-.75-0.06l0.13,0.34h-0.08c0-.08-0.11-0.26-0.05-0.27-0.09-.19,0,0.19,0,0.27a0.77,0.77,0,0,1-.12-0.42l0,0,0,0a0.35,0.35,0,0,1,0,.31,1.21,1.21,0,0,1-.11-0.21s0,0,0,0h-0.1l0.13,0.26c0,0.15-.09,0,0.06.31-0.23-.46-0.4-0.05-0.49-0.18,0,0.22,0,.24-0.11.24a0.45,0.45,0,0,1,.09.33,1.77,1.77,0,0,0-.44-0.66,1.8,1.8,0,0,0,.1.54,2.39,2.39,0,0,1-.19-0.36c0,0.29-.32-0.05-0.43.09a1.42,1.42,0,0,1,.13.33l-0.25-.37c0,0.05.18,0.48,0,.22a0.53,0.53,0,0,1,.08.2c-0.45-.27-0.41.57-1,0,0.11,0.14.09,0.16,0.07,0.18a2.14,2.14,0,0,1,.15.3L579,274c0.12,0.31-.11.08,0,0.37v-0.07c0.11,0.36.42,0.72,0.62,1.15-0.13-.41.4,0.5,0.23-0.09a2.52,2.52,0,0,1,.11.24c-0.07-.2-0.06-0.25,0-0.19l0,0a0.55,0.55,0,0,1,.46.1l-0.11-.21a0.38,0.38,0,0,1,.12.13c-0.11-.34-0.1,0-0.23-0.35,0.24,0.42.23-.1,0.48,0.39,0.05,0-.12-0.24-0.07-0.26l0.07,0.13-0.06-.18a0.79,0.79,0,0,1,.19.29s0,0,0,.06,0.09-.11.13-0.06l-0.08-.06c0.08-.19.32-0.07,0.34-0.41l-0.05-.1c0-.23.13,0.08,0.2-0.05v0c0-.11,0-0.18,0-0.18s0.14,0.22.16,0.37a1.49,1.49,0,0,0-.08-0.6l0.08,0.17a0.49,0.49,0,0,1,0-.32c0,0.17.13,0.25,0.15,0.47,0.25,0.34,0-.45.29,0.09-0.11-.5-0.2-0.23-0.2-0.35s-0.08-.38,0-0.34a2.51,2.51,0,0,0,.37.56s0,0,0,0,0-.19.12,0a1.55,1.55,0,0,0-.05-0.38l-0.06.11c0-.11-0.08-0.57.07-0.38a1.42,1.42,0,0,1,0,.25c0.06,0.1,0-.09.08,0a0.77,0.77,0,0,1,0,.42c0.08,0.15,0-.3.11,0.11-0.13-.53.11,0,0.05-0.38l0.06,0.23a0.33,0.33,0,0,1,0-.15l0.06,0.3c0-.27.16,0.19,0.17,0a0.8,0.8,0,0,1-.19-0.42c0-.34.24,0.58,0.35,0.43a0.28,0.28,0,0,1-.11-0.23,0.75,0.75,0,0,1,.15.24,0.84,0.84,0,0,0-.08-0.38c0.1,0.27,0-.13,0-0.23l0.06,0.23c0.14,0.12-.09-0.5,0-0.34l0,0.34,0-.1,0.05,0.27c0-.21,0-0.16.1-0.1a0.77,0.77,0,0,1,0-.45c0.06,0.13,0,.23.09,0.18,0,0.15,0,.34,0,0.13l0,0.23c0.07,0.15.09,0,.11,0a0.09,0.09,0,0,1,0,0l0-.35a0.66,0.66,0,0,1,0,.23,0.87,0.87,0,0,1,0-.17,2,2,0,0,1,.05.49l0-.23a1.93,1.93,0,0,1,.09.3c0.07,0.11.05-.39,0.14-0.25a0.29,0.29,0,0,1,0-.11c0.07,0,.15.26,0.19,0l0.08,0.35a3,3,0,0,1,0-.58,0.67,0.67,0,0,1,.09.39c0-.18,0-0.54.12-0.27C584.24,274.62,584.22,274.57,584.21,274.59Zm0.68-.18c0,0.05,0,.21-0.05.06S584.87,274.34,584.89,274.42ZM586,274c0,0.07,0,0,0-.06S586,273.92,586,274Zm3.92,0.69h0C590,274.59,590,274.63,590,274.68Zm0,0.13,0.08-.06c-0.05,0-.07,0-0.07,0S589.87,274.82,589.93,274.81Zm-8.4-1.87,0,0.05C581.55,273.07,581.54,273,581.53,272.94Z" transform="translate(-537.99 -270.32)"/><path class="cls-5" d="M585.84,274.28l0-.13A0.35,0.35,0,0,0,585.84,274.28Z" transform="translate(-537.99 -270.32)"/><polygon class="cls-5" points="45.81 4.46 45.8 4.45 45.81 4.5 45.81 4.46"/><path class="cls-5" d="M587.65,275.34a0.56,0.56,0,0,1,.06-0.11A0.19,0.19,0,0,0,587.65,275.34Z" transform="translate(-537.99 -270.32)"/><path class="cls-5" d="M590.54,275l-0.09,0s0,0.05,0,.09A0.28,0.28,0,0,1,590.54,275Z" transform="translate(-537.99 -270.32)"/><path class="cls-5" d="M589.49,276.14s0,0,0,0l0.1-.05A0.12,0.12,0,0,0,589.49,276.14Z" transform="translate(-537.99 -270.32)"/><path class="cls-5" d="M589.89,275.45c-0.17.11-.09,0.1,0,0.12h0C590.09,275.42,590,275.43,589.89,275.45Z" transform="translate(-537.99 -270.32)"/><path class="cls-5" d="M589.86,275.57a0,0,0,0,1,0,0C590,275.54,589.89,275.57,589.86,275.57Z" transform="translate(-537.99 -270.32)"/><path class="cls-5" d="M590.1,274.82s0.22-.14.16-0.08C590.48,274.61,589.93,274.81,590.1,274.82Z" transform="translate(-537.99 -270.32)"/><polygon class="cls-5" points="51.35 5.51 51.56 5.37 51.38 5.46 51.35 5.51"/><path class="cls-5" d="M589.35,275.5l0,0.08,0.08,0S589.41,275.46,589.35,275.5Z" transform="translate(-537.99 -270.32)"/><path class="cls-5" d="M589.4,275.55s0,0,.06,0A0.07,0.07,0,0,0,589.4,275.55Z" transform="translate(-537.99 -270.32)"/><polygon class="cls-5" points="51.25 5.49 51.29 5.45 51.28 5.41 51.25 5.49"/><path class="cls-5" d="M589,275h-0.09c-0.07.05-.1,0.1-0.06,0.09A0.41,0.41,0,0,0,589,275Z" transform="translate(-537.99 -270.32)"/><path class="cls-5" d="M588.6,275.57a1.28,1.28,0,0,1,.13-0.14l-0.24.19Z" transform="translate(-537.99 -270.32)"/><path class="cls-5" d="M588.45,275.5c-0.07.05-.24,0.11-0.18,0.14A0.34,0.34,0,0,0,588.45,275.5Z" transform="translate(-537.99 -270.32)"/><polygon class="cls-5" points="50.16 4.33 50.17 4.33 50.5 3.94 50.16 4.33"/><path class="cls-5" d="M586.89,275.24a1.34,1.34,0,0,1,.14-0.1c0.08-.09,0-0.13.1-0.21A0.65,0.65,0,0,0,586.89,275.24Z" transform="translate(-537.99 -270.32)"/><path class="cls-5" d="M587.13,274.93l0.06-.06Z" transform="translate(-537.99 -270.32)"/><polygon class="cls-5" points="40.83 3.47 40.74 3.39 40.84 3.53 40.83 3.47"/><path class="cls-5" d="M578.9,274.16l-0.15-.29,0.1,0.28S578.86,274.1,578.9,274.16Z" transform="translate(-537.99 -270.32)"/><path class="cls-5" d="M585,275.07V275a0.11,0.11,0,0,0,0-.1Z" transform="translate(-537.99 -270.32)"/><polygon class="cls-5" points="46.52 4.51 46.53 4.52 46.5 4.22 46.52 4.51"/><path class="cls-5" d="M584.15,275.23s0-.06,0,0S584.1,274.87,584.15,275.23Z" transform="translate(-537.99 -270.32)"/><path class="cls-2" d="M594.21,282c-0.72-.93-2.9-3.5-6.07-4a4.86,4.86,0,0,0-3.65.6,5.73,5.73,0,0,0-2.15,3.17" transform="translate(-537.99 -270.32)"/></svg>