<svg id="lips" xmlns="http://www.w3.org/2000/svg" xmlns:xlink="http://www.w3.org/1999/xlink" viewBox="0 0 22.8 14.69"><defs><style>.cls-1{fill:#a76964;}.cls-2{opacity:0.34;}.cls-3{fill:url(#radial-gradient);}.cls-4{fill:none;stroke:#4a393b;stroke-miterlimit:10;stroke-width:0.5px;opacity:0.69;}</style><radialGradient id="radial-gradient" cx="587.79" cy="321.08" r="7.66" gradientUnits="userSpaceOnUse"><stop offset="0" stop-color="#dabab5"/><stop offset="0.47" stop-color="#d9b8b3"/><stop offset="0.64" stop-color="#d6b1ad"/><stop offset="0.76" stop-color="#d0a6a3"/><stop offset="0.86" stop-color="#c89695"/></radialGradient></defs><title>mouth</title><path class="cls-1" d="M576,324.14l7.48-7.86,3.69-3.88a3.21,3.21,0,0,1,1.54-1.08c1.13-.24,2.27.77,3.4,0.5a4.32,4.32,0,0,1,1.65-.48,1.84,1.84,0,0,1,1.13,1.22l3.27,7.19a4.17,4.17,0,0,1,.53,2.94,4.11,4.11,0,0,1-1.12-1.45,3.59,3.59,0,0,0-1.3-.93,17.63,17.63,0,0,0-20.13,3.7" transform="translate(-576 -311.28)"/><path class="cls-1" d="M576.28,323.88l1-.55,2.89-1.59c1.29-.71,2.72-1.31,4-1.94a15.55,15.55,0,0,1,1.71-.59,12.65,12.65,0,0,1,1.74-.27,4.52,4.52,0,0,1,1.7.11l5.16,1a4.24,4.24,0,0,1,.7.18,3.9,3.9,0,0,1,.89.52c1.31,1,2.63,2.25,2.62,3.87a0.82,0.82,0,0,1-.08.39,0.89,0.89,0,0,1-.52.35,11.3,11.3,0,0,1-2.51.46,24.77,24.77,0,0,1-5.74,0c-0.91-.12-1.91-0.1-2.81-0.27-3.67-.68-7.37-0.68-11-1.6" transform="translate(-576 -311.28)"/><g class="cls-2"><path class="cls-3" d="M577.6,323.08c0.8-.42,1.4-0.92,2.25-1.46a8.92,8.92,0,0,1,1-.55q1.37-.64,2.77-1.2a11.79,11.79,0,0,1,1.56-.52,11.64,11.64,0,0,1,2.13-.46,17.85,17.85,0,0,1,5.21.42,8.92,8.92,0,0,1,2.77.9,16.83,16.83,0,0,1,1.47,1.1,3.31,3.31,0,0,1,1.36,1.44,3.61,3.61,0,0,1,.27.48,1.47,1.47,0,0,1-1-.42,8.85,8.85,0,0,0-3.34-1.08c-1.78-.21-2.93,0-4.83-0.17a28.46,28.46,0,0,0-5.52.06,15.48,15.48,0,0,0-2.65.44,6.82,6.82,0,0,0-1.17.35,5.42,5.42,0,0,1-1,.29c-0.49.13-1.23,0.47-1.72,0.58" transform="translate(-576 -311.28)"/></g><polyline class="cls-4" points="0.28 12.6 2.88 10.69 7.29 8.34 9.5 7.78 14.82 7.53 19.22 8.56 21.07 9.69 21.72 10.62"/></svg>