<svg id="nose" xmlns="http://www.w3.org/2000/svg" viewBox="0 0 17.28 39.72"><defs><style>.cls-1{fill:#45322d;}.cls-2,.cls-3{fill:none;stroke:#d6b8a3;stroke-miterlimit:10;}.cls-3{stroke-width:0.4px;}</style></defs><title>nose</title><path class="cls-1" d="M583.08,303a5.53,5.53,0,0,1,.67-4.33c1.52-2.17,4.75-2.66,5.17-2,0.3,0.48-.8,1.68-2,3A22,22,0,0,1,583.08,303Z" transform="translate(-579.06 -273.61)"/><path class="cls-2" d="M579.81,273.75a12.17,12.17,0,0,0,.29,6.1c0.93,2.3,2.93,3.11,7.08,5.67,4.7,2.9,7.24,4.67,7.87,5.73,3.25,5.44-4.92,7.31-3.54,13.27,0.73,3.17,1.64,7.15,2.85,8.48" transform="translate(-579.06 -273.61)"/><path class="cls-1" d="M591.27,302.25a4.11,4.11,0,0,1,.5-3.5,1.83,1.83,0,0,1,1-.83C593,298,592.8,298.93,591.27,302.25Z" transform="translate(-579.06 -273.61)"/><path class="cls-3" d="M582.73,303.26c-0.46-3.42,2.35-6.62,6.29-7.15" transform="translate(-579.06 -273.61)"/><path class="cls-3" d="M589,310.88a9.57,9.57,0,0,1-.75-2.94c-0.51-5.76,4.57-10,5.38-10.69" transform="translate(-579.06 -273.61)"/></svg>