<svg id="Layer_20" data-name="Layer 20" xmlns="http://www.w3.org/2000/svg" viewBox="0 0 8.78 6.65"><defs><style>.cls-1{fill:#b5a15a;}</style></defs><title>petal3</title><path class="cls-1" d="M345.11,299.64a3.5,3.5,0,0,0-.55-0.14c-0.2,0-.43,0-0.65,0l-1.22-.07a0.86,0.86,0,0,0,0-.32h0l0.94-.44c0.2-.09.41-0.18,0.59-0.27a3.5,3.5,0,0,0,.45-0.34,2.58,2.58,0,0,0,.39-0.43l0,0a2.59,2.59,0,0,0-.56.13,3.5,3.5,0,0,0-.52.23c-0.17.11-.35,0.25-0.53,0.38l-0.82.58a1,1,0,0,0-.42-0.4l0.5-.57c0.15-.16.3-0.32,0.43-0.48a3.5,3.5,0,0,0,.28-0.49,2.58,2.58,0,0,0,.19-0.54l0,0a2.58,2.58,0,0,0-.47.34,3.5,3.5,0,0,0-.38.42c-0.12.17-.22,0.36-0.33,0.55l-0.43.71-0.1,0c0.11-.24.23-0.52,0.35-0.79s0.19-.4.26-0.59a3.48,3.48,0,0,0,.12-0.55,2.58,2.58,0,0,0,0-.58l0,0a2.58,2.58,0,0,0-.34.46,3.49,3.49,0,0,0-.24.51c-0.06.2-.1,0.41-0.15,0.63s-0.15.62-.22,0.9h0l-0.29,0c0-.21,0-0.43,0-0.66s0-.44,0-0.65a3.49,3.49,0,0,0-.09-0.56,2.58,2.58,0,0,0-.2-0.54h0a2.58,2.58,0,0,0-.14.56,3.5,3.5,0,0,0,0,.56c0,0.2.06,0.42,0.09,0.64s0.07,0.49.1,0.72l-0.19.09-0.36-.73c-0.09-.2-0.18-0.4-0.28-0.58a3.49,3.49,0,0,0-.34-0.45,2.59,2.59,0,0,0-.43-0.38l0,0a2.58,2.58,0,0,0,.13.56,3.49,3.49,0,0,0,.24.51c0.11,0.17.25,0.34,0.38,0.52l0.48,0.67a1.28,1.28,0,0,0-.19.2l-0.82-.69c-0.17-.14-0.33-0.29-0.49-0.42a3.49,3.49,0,0,0-.5-0.27,2.58,2.58,0,0,0-.55-0.17l0,0a2.58,2.58,0,0,0,.35.46,3.48,3.48,0,0,0,.43.37c0.17,0.11.37,0.21,0.56,0.32l0.94,0.53v0l-1.13-.22c-0.22,0-.43-0.1-0.64-0.13H338a2.59,2.59,0,0,0-.56.12v0a2.58,2.58,0,0,0,.53.23,3.5,3.5,0,0,0,.55.12h1.74a0.87,0.87,0,0,0,0,.42v0s-0.87.16-1.73,0.36c-0.22,0-.43.08-0.63,0.13a3.5,3.5,0,0,0-.52.23,2.59,2.59,0,0,0-.47.33v0a2.17,2.17,0,0,0,.29,0h0.29a3.48,3.48,0,0,0,.56-0.11c0.19-.07.39-0.16,0.6-0.25,0.8-.32,1.59-0.67,1.62-0.69a0.86,0.86,0,0,0,.12.26c-0.19.25-.44,0.57-0.67,0.9-0.13.18-.27,0.35-0.39,0.52a3.5,3.5,0,0,0-.24.51,2.58,2.58,0,0,0-.14.56l0,0a2.58,2.58,0,0,0,.44-0.38,3.51,3.51,0,0,0,.35-0.45c0.1-.18.19-0.38,0.29-0.58s0.34-.67.47-0.95a1.12,1.12,0,0,0,.37.22l-0.29.4c-0.13.18-.27,0.35-0.39,0.52a3.5,3.5,0,0,0-.24.51,2.58,2.58,0,0,0-.14.56l0,0a2.59,2.59,0,0,0,.44-0.38,3.5,3.5,0,0,0,.35-0.45c0.1-.18.19-0.38,0.29-0.58l0.27-.53h0.25l0.4,1.64,0.49-.12-0.39-1.63a1.49,1.49,0,0,0,.25-0.13l0.62,0.69c0.14,0.17.28,0.34,0.43,0.48a3.51,3.51,0,0,0,.45.34,2.58,2.58,0,0,0,.52.25l0,0a2.59,2.59,0,0,0-.28-0.5,3.51,3.51,0,0,0-.37-0.43c-0.16-.13-0.34-0.26-0.51-0.4l-0.7-.55,0,0,0.81,0.52c0.18,0.12.36,0.25,0.54,0.35a3.49,3.49,0,0,0,.53.21,2.58,2.58,0,0,0,.57.1l0,0a2.58,2.58,0,0,0-.4-0.41,3.51,3.51,0,0,0-.47-0.32c-0.19-.09-0.39-0.16-0.6-0.25l-0.84-.35a1.05,1.05,0,0,0,.12-0.24l1.2,0.29c0.21,0.05.43,0.12,0.63,0.15a2.58,2.58,0,0,0,.38,0h0.19a2.58,2.58,0,0,0,.57-0.09v0A2.58,2.58,0,0,0,345.11,299.64Z" transform="translate(-336.85 -295.81)"/></svg>